<svg width="48" height="16" viewBox="0 0 48 16" fill="none" xmlns="http://www.w3.org/2000/svg">
<path d="M1.2172 16C0.906934 16 0.666667 16 0.358 16C0.358 16 0.266667 16 0 16V1.22247C0 0.814982 0.119333 0.515357 0.358 0.323596C0.620534 0.107866 0.906934 0 1.2172 0C1.52747 0 1.80193 0.107866 2.0406 0.323596C2.30313 0.515357 2.4344 0.814982 2.4344 1.22247V8.23371C2.4344 8.47341 2.4702 8.59326 2.5418 8.59326C2.6134 8.59326 2.70887 8.54532 2.8282 8.44944L7.26741 5.24944C7.52994 5.10562 7.76861 5.03371 7.98341 5.03371C8.31754 5.03371 8.59201 5.15356 8.80681 5.39326C9.02161 5.60899 9.12901 5.84869 9.12901 6.11236C9.12901 6.51985 8.93807 6.84345 8.55621 7.08315L4.9046 9.38427C4.6898 9.52809 4.5824 9.67191 4.5824 9.81573C4.5824 9.95955 4.66594 10.1154 4.833 10.2831L8.73521 13.9865C8.99774 14.2981 9.12901 14.5858 9.12901 14.8494C9.12901 15.161 9.00967 15.4247 8.77101 15.6404C8.53234 15.8801 8.25787 16 7.94761 16C7.63734 16 7.35094 15.8682 7.08841 15.6045L2.8998 11.4337C2.73274 11.2659 2.62534 11.182 2.5776 11.182C2.48214 11.182 2.4344 11.3258 2.4344 11.6135V14.8854C2.4344 15.2449 2.30313 15.5206 2.0406 15.7124C1.80193 15.9041 1.52747 16 1.2172 16Z" fill="white"/>
<path d="M12.125 16C11.8148 16 11.6 16 11.2658 16H10.9078V1.22247C10.9078 0.814982 11.0272 0.515357 11.2658 0.323596C11.5284 0.107866 11.8148 0 12.125 0C12.4353 0 12.7098 0.107866 12.9484 0.323596C13.211 0.515357 13.3422 0.814982 13.3422 1.22247V14.8854C13.3422 15.2449 13.211 15.5206 12.9484 15.7124C12.7098 15.9041 12.4353 16 12.125 16Z" fill="white"/>
<path d="M20.91 16C19.8837 16 18.9649 15.7603 18.1534 15.2809C17.3419 14.8015 16.7095 14.1423 16.256 13.3034C15.8025 12.4405 15.5758 11.4816 15.5758 10.427C15.5758 9.39626 15.8025 8.47341 16.256 7.65843C16.7095 6.84345 17.3419 6.20824 18.1534 5.75281C18.9649 5.27341 19.8837 5.03371 20.91 5.03371C21.5783 5.03371 22.1749 5.15356 22.7 5.39326C23.2251 5.60899 23.6785 5.89663 24.0604 6.25618C24.1081 5.9206 24.2513 5.66891 24.49 5.50112C24.7287 5.30936 24.9912 5.21348 25.2776 5.21348C25.5879 5.21348 25.8624 5.32135 26.101 5.53708C26.3636 5.72884 26.4948 6.02846 26.4948 6.43596V14.8854C26.4948 15.2449 26.3636 15.5206 26.101 15.7124C25.8624 15.9041 25.5879 16 25.2776 16C24.9674 16 24.4184 16 24.4184 16H24.0604V14.7416C23.6785 15.1251 23.2251 15.4247 22.7 15.6404C22.1749 15.8801 21.5783 16 20.91 16ZM21.1248 13.7708C22.0317 13.7708 22.7477 13.4712 23.2728 12.8719C23.7979 12.2487 24.0604 11.4337 24.0604 10.427C24.0604 9.46817 23.7979 8.70112 23.2728 8.12584C22.7477 7.55056 22.0317 7.26292 21.1248 7.26292C20.194 7.26292 19.4422 7.55056 18.8694 8.12584C18.2966 8.70112 18.0102 9.46817 18.0102 10.427C18.0102 11.4337 18.2966 12.2487 18.8694 12.8719C19.4422 13.4712 20.194 13.7708 21.1248 13.7708Z" fill="white"/>
<path d="M31.6268 10.3191V14.8854C31.6268 15.2449 31.4955 15.5206 31.233 15.7124C30.9943 15.9041 30.7199 16 30.4096 16C30.0993 16 29.5504 16 29.5504 16H29.1924V6.43596C29.1924 6.02846 29.3117 5.72884 29.5504 5.53708C29.8129 5.32135 30.0993 5.21348 30.4096 5.21348C30.7199 5.21348 30.9943 5.32135 31.233 5.53708C31.4955 5.72884 31.6268 6.02846 31.6268 6.43596V6.57978C31.9609 6.12435 32.3905 5.75281 32.9156 5.46517C33.4645 5.17753 34.0373 5.03371 34.634 5.03371C34.9204 5.03371 35.2068 5.06966 35.4932 5.14157C35.7796 5.21348 35.9944 5.35731 36.1376 5.57304C36.2808 5.78876 36.3524 6.02846 36.3524 6.29214C36.3524 6.60375 36.245 6.89139 36.0302 7.15506C35.8393 7.39476 35.5529 7.51461 35.171 7.51461C35.0039 7.51461 34.8249 7.49064 34.634 7.4427C34.4669 7.39476 34.2521 7.37079 33.9896 7.37079C33.2975 7.37079 32.7247 7.63446 32.2712 8.1618C31.8416 8.68914 31.6268 9.40824 31.6268 10.3191Z" fill="white"/>
<path d="M42.451 16C41.4009 16 40.4462 15.7603 39.587 15.2809C38.7517 14.8015 38.0953 14.1423 37.618 13.3034C37.1407 12.4405 36.902 11.4816 36.902 10.427C36.902 9.39626 37.1407 8.47341 37.618 7.65843C38.0953 6.84345 38.7517 6.20824 39.587 5.75281C40.4462 5.27341 41.4009 5.03371 42.451 5.03371C43.5011 5.03371 44.4439 5.27341 45.2792 5.75281C46.1145 6.20824 46.7709 6.84345 47.2482 7.65843C47.7494 8.47341 48 9.39626 48 10.427C48 11.4816 47.7494 12.4405 47.2482 13.3034C46.7709 14.1423 46.1145 14.8015 45.2792 15.2809C44.4439 15.7603 43.5011 16 42.451 16ZM42.451 13.7708C43.3818 13.7708 44.1336 13.4712 44.7064 12.8719C45.2792 12.2487 45.5656 11.4337 45.5656 10.427C45.5656 9.46817 45.2792 8.70112 44.7064 8.12584C44.1336 7.55056 43.3818 7.26292 42.451 7.26292C41.4963 7.26292 40.7326 7.55056 40.1598 8.12584C39.6109 8.70112 39.3364 9.46817 39.3364 10.427C39.3364 11.4337 39.6109 12.2487 40.1598 12.8719C40.7326 13.4712 41.4963 13.7708 42.451 13.7708Z" fill="white"/>
</svg>
