<?xml version="1.0" encoding="utf-8"?>
<!-- Generator: Adobe Illustrator 28.3.0, SVG Export Plug-In . SVG Version: 6.00 Build 0)  -->
<svg version="1.1" id="Calque_1" xmlns="http://www.w3.org/2000/svg" xmlns:xlink="http://www.w3.org/1999/xlink" x="0px" y="0px"
	 viewBox="0 0 1024 1024" style="enable-background:new 0 0 1024 1024;" xml:space="preserve">
<style type="text/css">
	.st0{fill:#178AF0;}
	.st1{fill:#FFFFFF;}
</style>
<rect y="-0.14" class="st0" width="1024" height="1024"/>
<path class="st1" d="M385.26,819.03c-11.91,0-21.14,0-32.99,0c0,0-3.51,0-13.75,0v-567.4c0-15.65,4.58-27.15,13.75-34.51
	c10.08-8.28,21.08-12.42,32.99-12.42c11.91,0,22.45,4.14,31.61,12.42c10.08,7.36,15.12,18.87,15.12,34.51v269.21
	c0,9.2,1.37,13.8,4.12,13.8c2.75,0,6.41-1.84,11-5.52l170.44-122.87c10.08-5.52,19.24-8.28,27.49-8.28
	c12.83,0,23.37,4.6,31.62,13.81c8.25,8.28,12.37,17.49,12.37,27.61c0,15.65-7.33,28.07-21.99,37.27l-140.2,88.36
	c-8.25,5.52-12.37,11.04-12.37,16.57c0,5.52,3.21,11.5,9.62,17.95l149.83,142.2c10.08,11.96,15.12,23.01,15.12,33.13
	c0,11.96-4.58,22.09-13.74,30.37c-9.16,9.2-19.7,13.8-31.61,13.8s-22.91-5.06-32.99-15.19L449.87,643.7
	c-6.41-6.44-10.54-9.66-12.37-9.66c-3.67,0-5.5,5.52-5.5,16.57v125.63c0,13.81-5.04,24.39-15.12,31.75
	C407.71,815.35,397.17,819.03,385.26,819.03z"/>
</svg>
